<mxfile host="app.diagrams.net" modified="2023-12-19T04:28:49.460Z" agent="Mozilla/5.0 (X11; Ubuntu; Linux x86_64; rv:109.0) Gecko/20100101 Firefox/116.0" etag="vh8KGmtJl2COEe6JrlE3" version="22.1.11" type="github">
  <diagram name="第 1 页" id="IQU6jFRGpec_LWGkQjYb">
    <mxGraphModel dx="2012" dy="748" grid="1" gridSize="10" guides="1" tooltips="1" connect="1" arrows="1" fold="1" page="1" pageScale="1" pageWidth="827" pageHeight="1169" math="1" shadow="0">
      <root>
        <mxCell id="0" />
        <mxCell id="1" parent="0" />
        <mxCell id="wRPZgvR5wdqnLo2mRGHW-9" style="edgeStyle=orthogonalEdgeStyle;rounded=0;orthogonalLoop=1;jettySize=auto;html=1;entryX=0;entryY=0.5;entryDx=0;entryDy=0;shadow=1;" parent="1" source="wRPZgvR5wdqnLo2mRGHW-2" target="wRPZgvR5wdqnLo2mRGHW-3" edge="1">
          <mxGeometry relative="1" as="geometry" />
        </mxCell>
        <mxCell id="wRPZgvR5wdqnLo2mRGHW-2" value="" style="html=1;shape=mxgraph.basic.isocube;isoAngle=15;flipH=1;flipV=0;fillColor=#d5e8d4;strokeColor=#82b366;shadow=1;" parent="1" vertex="1">
          <mxGeometry x="9" y="40" width="40" height="50" as="geometry" />
        </mxCell>
        <mxCell id="wRPZgvR5wdqnLo2mRGHW-13" style="edgeStyle=orthogonalEdgeStyle;rounded=0;orthogonalLoop=1;jettySize=auto;html=1;entryX=0;entryY=0;entryDx=0;entryDy=0;shadow=1;" parent="1" target="wRPZgvR5wdqnLo2mRGHW-40" edge="1">
          <mxGeometry relative="1" as="geometry">
            <mxPoint x="339" y="65" as="targetPoint" />
            <mxPoint x="239" y="64.75" as="sourcePoint" />
            <Array as="points">
              <mxPoint x="285" y="65" />
            </Array>
          </mxGeometry>
        </mxCell>
        <mxCell id="wRPZgvR5wdqnLo2mRGHW-3" value="巻积神经网络" style="rounded=1;whiteSpace=wrap;html=1;fillColor=#dae8fc;strokeColor=#6c8ebf;shadow=1;" parent="1" vertex="1">
          <mxGeometry x="129" y="35" width="120" height="60" as="geometry" />
        </mxCell>
        <mxCell id="wRPZgvR5wdqnLo2mRGHW-43" style="edgeStyle=orthogonalEdgeStyle;rounded=0;orthogonalLoop=1;jettySize=auto;html=1;entryX=0;entryY=0;entryDx=0;entryDy=0;shadow=1;" parent="1" source="wRPZgvR5wdqnLo2mRGHW-23" target="wRPZgvR5wdqnLo2mRGHW-31" edge="1">
          <mxGeometry relative="1" as="geometry">
            <Array as="points">
              <mxPoint x="319" y="160" />
              <mxPoint x="319" y="160" />
            </Array>
          </mxGeometry>
        </mxCell>
        <mxCell id="wRPZgvR5wdqnLo2mRGHW-23" value="全连接神经网络" style="rounded=1;whiteSpace=wrap;html=1;fillColor=#dae8fc;strokeColor=#6c8ebf;shadow=1;" parent="1" vertex="1">
          <mxGeometry x="129" y="130" width="120" height="60" as="geometry" />
        </mxCell>
        <mxCell id="wRPZgvR5wdqnLo2mRGHW-25" style="edgeStyle=orthogonalEdgeStyle;rounded=0;orthogonalLoop=1;jettySize=auto;html=1;exitX=1;exitY=0;exitDx=0;exitDy=0;entryX=0;entryY=0.5;entryDx=0;entryDy=0;shadow=1;" parent="1" source="wRPZgvR5wdqnLo2mRGHW-18" target="wRPZgvR5wdqnLo2mRGHW-23" edge="1">
          <mxGeometry relative="1" as="geometry">
            <Array as="points">
              <mxPoint x="59" y="160" />
              <mxPoint x="59" y="160" />
            </Array>
          </mxGeometry>
        </mxCell>
        <mxCell id="wRPZgvR5wdqnLo2mRGHW-35" value="" style="group;fillColor=#f8cecc;strokeColor=#b85450;shadow=1;" parent="1" vertex="1" connectable="0">
          <mxGeometry x="349" y="130" width="10" height="60" as="geometry" />
        </mxCell>
        <mxCell id="wRPZgvR5wdqnLo2mRGHW-28" value="" style="rounded=0;whiteSpace=wrap;html=1;fillColor=#f8cecc;strokeColor=#b85450;shadow=1;" parent="wRPZgvR5wdqnLo2mRGHW-35" vertex="1">
          <mxGeometry width="10" height="10" as="geometry" />
        </mxCell>
        <mxCell id="wRPZgvR5wdqnLo2mRGHW-29" value="" style="rounded=0;whiteSpace=wrap;html=1;fillColor=#f8cecc;strokeColor=#b85450;shadow=1;" parent="wRPZgvR5wdqnLo2mRGHW-35" vertex="1">
          <mxGeometry y="10" width="10" height="10" as="geometry" />
        </mxCell>
        <mxCell id="wRPZgvR5wdqnLo2mRGHW-30" value="" style="rounded=0;whiteSpace=wrap;html=1;fillColor=#f8cecc;strokeColor=#b85450;shadow=1;" parent="wRPZgvR5wdqnLo2mRGHW-35" vertex="1">
          <mxGeometry y="20" width="10" height="10" as="geometry" />
        </mxCell>
        <mxCell id="wRPZgvR5wdqnLo2mRGHW-95" style="edgeStyle=orthogonalEdgeStyle;rounded=0;orthogonalLoop=1;jettySize=auto;html=1;exitX=1;exitY=0;exitDx=0;exitDy=0;shadow=1;" parent="wRPZgvR5wdqnLo2mRGHW-35" source="wRPZgvR5wdqnLo2mRGHW-31" edge="1">
          <mxGeometry relative="1" as="geometry">
            <mxPoint x="120" y="-10" as="targetPoint" />
            <Array as="points">
              <mxPoint x="60" y="30" />
              <mxPoint x="60" y="-10" />
            </Array>
          </mxGeometry>
        </mxCell>
        <mxCell id="wRPZgvR5wdqnLo2mRGHW-31" value="" style="rounded=0;whiteSpace=wrap;html=1;fillColor=#f8cecc;strokeColor=#b85450;shadow=1;" parent="wRPZgvR5wdqnLo2mRGHW-35" vertex="1">
          <mxGeometry y="30" width="10" height="10" as="geometry" />
        </mxCell>
        <mxCell id="wRPZgvR5wdqnLo2mRGHW-32" value="" style="rounded=0;whiteSpace=wrap;html=1;fillColor=#f8cecc;strokeColor=#b85450;shadow=1;" parent="wRPZgvR5wdqnLo2mRGHW-35" vertex="1">
          <mxGeometry y="40" width="10" height="10" as="geometry" />
        </mxCell>
        <mxCell id="wRPZgvR5wdqnLo2mRGHW-33" value="" style="rounded=0;whiteSpace=wrap;html=1;fillColor=#f8cecc;strokeColor=#b85450;shadow=1;" parent="wRPZgvR5wdqnLo2mRGHW-35" vertex="1">
          <mxGeometry y="50" width="10" height="10" as="geometry" />
        </mxCell>
        <mxCell id="wRPZgvR5wdqnLo2mRGHW-36" value="" style="group;fillColor=#d5e8d4;strokeColor=#82b366;shadow=1;" parent="1" vertex="1" connectable="0">
          <mxGeometry x="349" y="35" width="10" height="60" as="geometry" />
        </mxCell>
        <mxCell id="wRPZgvR5wdqnLo2mRGHW-37" value="" style="rounded=0;whiteSpace=wrap;html=1;fillColor=#d5e8d4;strokeColor=#82b366;shadow=1;" parent="wRPZgvR5wdqnLo2mRGHW-36" vertex="1">
          <mxGeometry width="10" height="10" as="geometry" />
        </mxCell>
        <mxCell id="wRPZgvR5wdqnLo2mRGHW-38" value="" style="rounded=0;whiteSpace=wrap;html=1;fillColor=#d5e8d4;strokeColor=#82b366;shadow=1;" parent="wRPZgvR5wdqnLo2mRGHW-36" vertex="1">
          <mxGeometry y="10" width="10" height="10" as="geometry" />
        </mxCell>
        <mxCell id="wRPZgvR5wdqnLo2mRGHW-39" value="" style="rounded=0;whiteSpace=wrap;html=1;fillColor=#d5e8d4;strokeColor=#82b366;shadow=1;" parent="wRPZgvR5wdqnLo2mRGHW-36" vertex="1">
          <mxGeometry y="20" width="10" height="10" as="geometry" />
        </mxCell>
        <mxCell id="wRPZgvR5wdqnLo2mRGHW-40" value="" style="rounded=0;whiteSpace=wrap;html=1;fillColor=#d5e8d4;strokeColor=#82b366;shadow=1;" parent="wRPZgvR5wdqnLo2mRGHW-36" vertex="1">
          <mxGeometry y="30" width="10" height="10" as="geometry" />
        </mxCell>
        <mxCell id="wRPZgvR5wdqnLo2mRGHW-41" value="" style="rounded=0;whiteSpace=wrap;html=1;fillColor=#d5e8d4;strokeColor=#82b366;shadow=1;" parent="wRPZgvR5wdqnLo2mRGHW-36" vertex="1">
          <mxGeometry y="40" width="10" height="10" as="geometry" />
        </mxCell>
        <mxCell id="wRPZgvR5wdqnLo2mRGHW-42" value="" style="rounded=0;whiteSpace=wrap;html=1;fillColor=#d5e8d4;strokeColor=#82b366;shadow=1;" parent="wRPZgvR5wdqnLo2mRGHW-36" vertex="1">
          <mxGeometry y="50" width="10" height="10" as="geometry" />
        </mxCell>
        <mxCell id="wRPZgvR5wdqnLo2mRGHW-100" style="edgeStyle=orthogonalEdgeStyle;rounded=0;orthogonalLoop=1;jettySize=auto;html=1;entryX=0;entryY=0.5;entryDx=0;entryDy=0;shadow=1;" parent="1" source="wRPZgvR5wdqnLo2mRGHW-65" target="wRPZgvR5wdqnLo2mRGHW-99" edge="1">
          <mxGeometry relative="1" as="geometry" />
        </mxCell>
        <mxCell id="wRPZgvR5wdqnLo2mRGHW-65" value="全连接神经网络" style="rounded=1;whiteSpace=wrap;html=1;fillColor=#dae8fc;strokeColor=#6c8ebf;shadow=1;" parent="1" vertex="1">
          <mxGeometry x="569" y="90" width="120" height="60" as="geometry" />
        </mxCell>
        <mxCell id="wRPZgvR5wdqnLo2mRGHW-82" value="" style="group;shadow=1;" parent="1" vertex="1" connectable="0">
          <mxGeometry x="24" y="120" width="10" height="80" as="geometry" />
        </mxCell>
        <mxCell id="wRPZgvR5wdqnLo2mRGHW-22" value="" style="group;fillColor=#f8cecc;strokeColor=#b85450;container=0;shadow=1;" parent="wRPZgvR5wdqnLo2mRGHW-82" vertex="1" connectable="0">
          <mxGeometry width="10" height="80" as="geometry" />
        </mxCell>
        <mxCell id="wRPZgvR5wdqnLo2mRGHW-14" value="" style="rounded=0;whiteSpace=wrap;html=1;fillColor=#f8cecc;strokeColor=#b85450;shadow=1;" parent="wRPZgvR5wdqnLo2mRGHW-82" vertex="1">
          <mxGeometry width="10" height="10" as="geometry" />
        </mxCell>
        <mxCell id="wRPZgvR5wdqnLo2mRGHW-15" value="" style="rounded=0;whiteSpace=wrap;html=1;fillColor=#f8cecc;strokeColor=#b85450;shadow=1;" parent="wRPZgvR5wdqnLo2mRGHW-82" vertex="1">
          <mxGeometry y="10" width="10" height="10" as="geometry" />
        </mxCell>
        <mxCell id="wRPZgvR5wdqnLo2mRGHW-16" value="" style="rounded=0;whiteSpace=wrap;html=1;fillColor=#f8cecc;strokeColor=#b85450;shadow=1;" parent="wRPZgvR5wdqnLo2mRGHW-82" vertex="1">
          <mxGeometry y="20" width="10" height="10" as="geometry" />
        </mxCell>
        <mxCell id="wRPZgvR5wdqnLo2mRGHW-17" value="" style="rounded=0;whiteSpace=wrap;html=1;fillColor=#f8cecc;strokeColor=#b85450;shadow=1;" parent="wRPZgvR5wdqnLo2mRGHW-82" vertex="1">
          <mxGeometry y="30" width="10" height="10" as="geometry" />
        </mxCell>
        <mxCell id="wRPZgvR5wdqnLo2mRGHW-18" value="" style="rounded=0;whiteSpace=wrap;html=1;fillColor=#f8cecc;strokeColor=#b85450;shadow=1;" parent="wRPZgvR5wdqnLo2mRGHW-82" vertex="1">
          <mxGeometry y="40" width="10" height="10" as="geometry" />
        </mxCell>
        <mxCell id="wRPZgvR5wdqnLo2mRGHW-19" value="" style="rounded=0;whiteSpace=wrap;html=1;fillColor=#f8cecc;strokeColor=#b85450;shadow=1;" parent="wRPZgvR5wdqnLo2mRGHW-82" vertex="1">
          <mxGeometry y="50" width="10" height="10" as="geometry" />
        </mxCell>
        <mxCell id="wRPZgvR5wdqnLo2mRGHW-20" value="" style="rounded=0;whiteSpace=wrap;html=1;fillColor=#f8cecc;strokeColor=#b85450;shadow=1;" parent="wRPZgvR5wdqnLo2mRGHW-82" vertex="1">
          <mxGeometry y="60" width="10" height="10" as="geometry" />
        </mxCell>
        <mxCell id="wRPZgvR5wdqnLo2mRGHW-21" value="" style="rounded=0;whiteSpace=wrap;html=1;fillColor=#f8cecc;strokeColor=#b85450;shadow=1;" parent="wRPZgvR5wdqnLo2mRGHW-82" vertex="1">
          <mxGeometry y="70" width="10" height="10" as="geometry" />
        </mxCell>
        <mxCell id="wRPZgvR5wdqnLo2mRGHW-92" value="" style="group;shadow=1;" parent="1" vertex="1" connectable="0">
          <mxGeometry x="469" y="60" width="10" height="120" as="geometry" />
        </mxCell>
        <mxCell id="wRPZgvR5wdqnLo2mRGHW-75" value="" style="group;fillColor=#d5e8d4;strokeColor=#82b366;shadow=1;" parent="wRPZgvR5wdqnLo2mRGHW-92" vertex="1" connectable="0">
          <mxGeometry width="10" height="60" as="geometry" />
        </mxCell>
        <mxCell id="wRPZgvR5wdqnLo2mRGHW-76" value="" style="rounded=0;whiteSpace=wrap;html=1;fillColor=#d5e8d4;strokeColor=#82b366;shadow=1;" parent="wRPZgvR5wdqnLo2mRGHW-75" vertex="1">
          <mxGeometry width="10" height="10" as="geometry" />
        </mxCell>
        <mxCell id="wRPZgvR5wdqnLo2mRGHW-77" value="" style="rounded=0;whiteSpace=wrap;html=1;fillColor=#d5e8d4;strokeColor=#82b366;shadow=1;" parent="wRPZgvR5wdqnLo2mRGHW-75" vertex="1">
          <mxGeometry y="10" width="10" height="10" as="geometry" />
        </mxCell>
        <mxCell id="wRPZgvR5wdqnLo2mRGHW-78" value="" style="rounded=0;whiteSpace=wrap;html=1;fillColor=#d5e8d4;strokeColor=#82b366;shadow=1;" parent="wRPZgvR5wdqnLo2mRGHW-75" vertex="1">
          <mxGeometry y="20" width="10" height="10" as="geometry" />
        </mxCell>
        <mxCell id="wRPZgvR5wdqnLo2mRGHW-79" value="" style="rounded=0;whiteSpace=wrap;html=1;fillColor=#d5e8d4;strokeColor=#82b366;shadow=1;" parent="wRPZgvR5wdqnLo2mRGHW-75" vertex="1">
          <mxGeometry y="30" width="10" height="10" as="geometry" />
        </mxCell>
        <mxCell id="wRPZgvR5wdqnLo2mRGHW-80" value="" style="rounded=0;whiteSpace=wrap;html=1;fillColor=#d5e8d4;strokeColor=#82b366;shadow=1;" parent="wRPZgvR5wdqnLo2mRGHW-75" vertex="1">
          <mxGeometry y="40" width="10" height="10" as="geometry" />
        </mxCell>
        <mxCell id="wRPZgvR5wdqnLo2mRGHW-81" value="" style="rounded=0;whiteSpace=wrap;html=1;fillColor=#d5e8d4;strokeColor=#82b366;shadow=1;" parent="wRPZgvR5wdqnLo2mRGHW-75" vertex="1">
          <mxGeometry y="50" width="10" height="10" as="geometry" />
        </mxCell>
        <mxCell id="wRPZgvR5wdqnLo2mRGHW-83" value="" style="group;fillColor=#f8cecc;strokeColor=#b85450;shadow=1;" parent="wRPZgvR5wdqnLo2mRGHW-92" vertex="1" connectable="0">
          <mxGeometry y="60" width="10" height="60" as="geometry" />
        </mxCell>
        <mxCell id="wRPZgvR5wdqnLo2mRGHW-84" value="" style="rounded=0;whiteSpace=wrap;html=1;fillColor=#f8cecc;strokeColor=#b85450;shadow=1;" parent="wRPZgvR5wdqnLo2mRGHW-83" vertex="1">
          <mxGeometry width="10" height="10" as="geometry" />
        </mxCell>
        <mxCell id="wRPZgvR5wdqnLo2mRGHW-85" value="" style="rounded=0;whiteSpace=wrap;html=1;fillColor=#f8cecc;strokeColor=#b85450;shadow=1;" parent="wRPZgvR5wdqnLo2mRGHW-83" vertex="1">
          <mxGeometry y="10" width="10" height="10" as="geometry" />
        </mxCell>
        <mxCell id="wRPZgvR5wdqnLo2mRGHW-86" value="" style="rounded=0;whiteSpace=wrap;html=1;fillColor=#f8cecc;strokeColor=#b85450;shadow=1;" parent="wRPZgvR5wdqnLo2mRGHW-83" vertex="1">
          <mxGeometry y="20" width="10" height="10" as="geometry" />
        </mxCell>
        <mxCell id="wRPZgvR5wdqnLo2mRGHW-87" value="" style="rounded=0;whiteSpace=wrap;html=1;fillColor=#f8cecc;strokeColor=#b85450;shadow=1;" parent="wRPZgvR5wdqnLo2mRGHW-83" vertex="1">
          <mxGeometry y="30" width="10" height="10" as="geometry" />
        </mxCell>
        <mxCell id="wRPZgvR5wdqnLo2mRGHW-88" value="" style="rounded=0;whiteSpace=wrap;html=1;fillColor=#f8cecc;strokeColor=#b85450;shadow=1;" parent="wRPZgvR5wdqnLo2mRGHW-83" vertex="1">
          <mxGeometry y="40" width="10" height="10" as="geometry" />
        </mxCell>
        <mxCell id="wRPZgvR5wdqnLo2mRGHW-89" value="" style="rounded=0;whiteSpace=wrap;html=1;fillColor=#f8cecc;strokeColor=#b85450;shadow=1;" parent="wRPZgvR5wdqnLo2mRGHW-83" vertex="1">
          <mxGeometry y="50" width="10" height="10" as="geometry" />
        </mxCell>
        <mxCell id="wRPZgvR5wdqnLo2mRGHW-94" style="edgeStyle=orthogonalEdgeStyle;rounded=0;orthogonalLoop=1;jettySize=auto;html=1;exitX=1;exitY=1;exitDx=0;exitDy=0;entryX=0;entryY=0;entryDx=0;entryDy=0;shadow=1;" parent="1" source="wRPZgvR5wdqnLo2mRGHW-39" target="wRPZgvR5wdqnLo2mRGHW-84" edge="1">
          <mxGeometry relative="1" as="geometry">
            <Array as="points">
              <mxPoint x="359" y="70" />
              <mxPoint x="409" y="70" />
              <mxPoint x="409" y="120" />
            </Array>
          </mxGeometry>
        </mxCell>
        <mxCell id="wRPZgvR5wdqnLo2mRGHW-97" style="edgeStyle=orthogonalEdgeStyle;rounded=0;orthogonalLoop=1;jettySize=auto;html=1;entryX=0;entryY=0.5;entryDx=0;entryDy=0;shadow=1;" parent="1" source="wRPZgvR5wdqnLo2mRGHW-81" target="wRPZgvR5wdqnLo2mRGHW-65" edge="1">
          <mxGeometry relative="1" as="geometry">
            <Array as="points">
              <mxPoint x="499" y="120" />
              <mxPoint x="499" y="120" />
            </Array>
          </mxGeometry>
        </mxCell>
        <mxCell id="wRPZgvR5wdqnLo2mRGHW-99" value="" style="ellipse;whiteSpace=wrap;html=1;aspect=fixed;fillColor=#e1d5e7;strokeColor=#9673a6;shadow=1;" parent="1" vertex="1">
          <mxGeometry x="769" y="112.5" width="15" height="15" as="geometry" />
        </mxCell>
        <mxCell id="wRPZgvR5wdqnLo2mRGHW-102" value="`S`" style="text;strokeColor=none;align=center;fillColor=none;html=1;verticalAlign=middle;whiteSpace=wrap;rounded=0;shadow=1;" parent="1" vertex="1">
          <mxGeometry x="-1" y="90" width="60" height="30" as="geometry" />
        </mxCell>
        <mxCell id="wRPZgvR5wdqnLo2mRGHW-104" value="特征向量" style="text;strokeColor=none;align=center;fillColor=none;html=1;verticalAlign=middle;whiteSpace=wrap;rounded=0;shadow=1;" parent="1" vertex="1">
          <mxGeometry x="324" y="95" width="60" height="30" as="geometry" />
        </mxCell>
        <mxCell id="wRPZgvR5wdqnLo2mRGHW-105" value="特征向量" style="text;strokeColor=none;align=center;fillColor=none;html=1;verticalAlign=middle;whiteSpace=wrap;rounded=0;shadow=1;" parent="1" vertex="1">
          <mxGeometry x="323" y="190" width="60" height="30" as="geometry" />
        </mxCell>
        <mxCell id="wRPZgvR5wdqnLo2mRGHW-107" value="`a`" style="text;strokeColor=none;align=center;fillColor=none;html=1;verticalAlign=middle;whiteSpace=wrap;rounded=0;shadow=1;" parent="1" vertex="1">
          <mxGeometry y="200" width="60" height="30" as="geometry" />
        </mxCell>
        <mxCell id="wRPZgvR5wdqnLo2mRGHW-108" value="`q(s,a;w)`" style="text;strokeColor=none;align=center;fillColor=none;html=1;verticalAlign=middle;whiteSpace=wrap;rounded=0;shadow=1;" parent="1" vertex="1">
          <mxGeometry x="746.5" y="130" width="60" height="30" as="geometry" />
        </mxCell>
        <mxCell id="wRPZgvR5wdqnLo2mRGHW-111" value="连接" style="text;strokeColor=none;align=center;fillColor=none;html=1;verticalAlign=middle;whiteSpace=wrap;rounded=0;shadow=1;" parent="1" vertex="1">
          <mxGeometry x="409" y="90" width="60" height="30" as="geometry" />
        </mxCell>
      </root>
    </mxGraphModel>
  </diagram>
</mxfile>
